<svg xmlns="http://www.w3.org/2000/svg" width="19" height="19" fill="none"><path d="M4.75 17.813a.595.595 0 0 1-.594-.594V14.25H2.375c-.982 0-1.781-.8-1.781-1.781v-9.5c0-.982.799-1.781 1.781-1.781h14.25c.982 0 1.781.799 1.781 1.78v9.5c0 .983-.799 1.782-1.781 1.782H9.412l-4.29 3.433a.592.592 0 0 1-.372.13ZM2.375 2.374a.594.594 0 0 0-.594.594v9.5c0 .327.266.594.594.594H4.75a.594.594 0 0 1 .594.593v2.328l3.488-2.791a.594.594 0 0 1 .371-.13h7.422a.594.594 0 0 0 .594-.594v-9.5a.594.594 0 0 0-.594-.594H2.375Z" fill="#fff"/><path d="M14.25 7.125h-9.5a.594.594 0 0 1 0-1.188h9.5a.594.594 0 1 1 0 1.188ZM9.5 9.5H4.75a.594.594 0 0 1 0-1.188H9.5a.594.594 0 0 1 0 1.188Z" fill="#fff"/></svg>