<svg xmlns="http://www.w3.org/2000/svg" width="19" height="19" fill="none"><path d="M9.5 13.153c1.005 0 1.864-.357 2.58-1.072.715-.716 1.073-1.576 1.073-2.581V3.654c0-1.005-.357-1.865-1.073-2.58C11.364.357 10.505 0 9.5 0 8.495 0 7.635.358 6.919 1.073c-.716.716-1.073 1.576-1.073 2.581V9.5c0 1.005.358 1.865 1.073 2.58.715.716 1.576 1.073 2.58 1.073Z" fill="#fff"/><path d="M15.86 7.525a.702.702 0 0 0-.514-.217.703.703 0 0 0-.514.217.702.702 0 0 0-.217.513V9.5c0 1.408-.5 2.613-1.502 3.614-1 1-2.205 1.501-3.613 1.501-1.409 0-2.613-.5-3.614-1.501-1.001-1-1.502-2.206-1.502-3.614V8.038a.702.702 0 0 0-.216-.513.702.702 0 0 0-.514-.217.702.702 0 0 0-.514.217.702.702 0 0 0-.217.513V9.5c0 1.682.561 3.146 1.684 4.39 1.123 1.245 2.51 1.958 4.162 2.14v1.508H5.846a.702.702 0 0 0-.514.217.702.702 0 0 0-.217.514c0 .198.073.37.217.514a.703.703 0 0 0 .514.217h7.307c.198 0 .37-.073.514-.217a.702.702 0 0 0 .217-.514.702.702 0 0 0-.217-.514.702.702 0 0 0-.514-.217h-2.922v-1.507c1.651-.183 3.039-.896 4.161-2.14 1.123-1.245 1.685-2.709 1.685-4.391V8.038a.702.702 0 0 0-.217-.513Z" fill="#fff"/></svg>