<svg xmlns="http://www.w3.org/2000/svg" viewBox="0 0 195 42" fill="none"><g clip-path="url(#a)" fill="#FFF"><path d="M119.508 30.113h-1.946v-3.016h1.946c1.205 0 2.423-.3 3.207-1.136.785-.834 1.081-2.115 1.081-3.395 0-1.28-.284-2.56-1.081-3.394-.796-.835-2.002-1.136-3.207-1.136-1.206 0-2.423.3-3.208 1.136-.785.834-1.081 2.114-1.081 3.394v12.39h-3.413V15.03h3.413V16.3h.626c.068-.078.136-.145.204-.212.854-.779 2.162-1.057 3.447-1.057 2.014 0 4.027.501 5.347 1.892 1.319 1.392 1.786 3.529 1.786 5.655 0 2.126-.478 4.252-1.786 5.654-1.308 1.402-3.333 1.881-5.335 1.881ZM67.566 15.565h1.946v3.017h-1.946c-1.205 0-2.423.3-3.207 1.135-.785.835-1.081 2.115-1.081 3.395 0 1.28.284 2.56 1.08 3.395.797.835 2.003 1.135 3.208 1.135 1.206 0 2.424-.3 3.208-1.135.785-.835 1.081-2.115 1.081-3.395v-12.4h3.413v19.935h-3.413V29.38h-.626a3.773 3.773 0 0 1-.204.211c-.854.78-2.162 1.058-3.447 1.058-2.014 0-4.027-.501-5.347-1.893-1.32-1.391-1.786-3.528-1.786-5.654s.478-4.252 1.786-5.654c1.32-1.392 3.333-1.882 5.335-1.882ZM92.388 22.845v1.213H83.3v-2.415h6.029c-.137-.88-.455-1.703-1.024-2.304-.819-.868-2.082-1.18-3.333-1.18-1.251 0-2.514.312-3.333 1.18-.819.868-1.115 2.193-1.115 3.506 0 1.313.296 2.649 1.115 3.506.82.857 2.082 1.18 3.333 1.18 1.251 0 2.514-.312 3.333-1.18.114-.122.216-.256.319-.39h3.367c-.296 1.047-.762 1.993-1.468 2.728-1.365 1.435-3.47 1.959-5.55 1.959-2.083 0-4.187-.512-5.552-1.96-1.365-1.447-1.866-3.65-1.866-5.843s.49-4.408 1.866-5.844c1.376-1.436 3.47-1.959 5.551-1.959 2.082 0 4.186.512 5.551 1.96 1.377 1.446 1.866 3.65 1.866 5.843ZM109.52 22.845v1.213h-9.089v-2.415h6.029c-.137-.88-.455-1.703-1.024-2.304-.819-.868-2.082-1.18-3.333-1.18-1.251 0-2.514.312-3.333 1.18-.82.868-1.115 2.193-1.115 3.506 0 1.313.296 2.649 1.115 3.506.819.857 2.082 1.18 3.333 1.18 1.251 0 2.514-.312 3.333-1.18.114-.122.216-.256.318-.39h3.368c-.296 1.047-.763 1.993-1.468 2.728-1.365 1.435-3.469 1.959-5.551 1.959-2.082 0-4.186-.512-5.551-1.96-1.366-1.447-1.866-3.65-1.866-5.843s.489-4.408 1.865-5.844c1.377-1.436 3.47-1.959 5.552-1.959 2.082 0 4.186.512 5.551 1.96 1.377 1.446 1.866 3.65 1.866 5.843ZM136.355 30.648c2.082 0 4.186-.301 5.551-1.158 1.365-.857 1.866-2.16 1.866-3.45 0-1.292-.49-2.605-1.866-3.451-1.365-.846-3.469-1.158-5.551-1.158-.888 0-1.707-.122-2.287-.445-.58-.334-.796-.835-.796-1.336 0-.5.205-1.012.796-1.335.58-.334 1.479-.446 2.366-.446.888 0 1.786.123 2.367.446.58.334.796.834.796 1.335h3.469c0-1.29-.443-2.604-1.683-3.45-1.24-.846-3.14-1.158-5.028-1.158-1.889 0-3.788.3-5.028 1.158-1.24.857-1.684 2.16-1.684 3.45 0 1.291.444 2.605 1.684 3.45 1.24.847 3.139 1.159 5.028 1.159.978 0 2.059.122 2.707.445.649.323.876.835.876 1.335 0 .501-.227 1.013-.876 1.336-.648.323-1.638.445-2.616.445-.979 0-1.98-.122-2.617-.445s-.876-.835-.876-1.336h-4.004c0 1.292.489 2.605 1.866 3.451 1.376.846 3.458 1.158 5.54 1.158ZM160.903 22.845v1.213h-9.089v-2.415h6.029c-.136-.88-.455-1.703-1.023-2.304-.82-.868-2.082-1.18-3.334-1.18-1.251 0-2.514.312-3.333 1.18-.819.868-1.114 2.193-1.114 3.506 0 1.313.295 2.649 1.114 3.506.819.857 2.082 1.18 3.333 1.18 1.252 0 2.514-.312 3.334-1.18.113-.122.216-.256.318-.39h3.367c-.296 1.047-.762 1.993-1.467 2.728-1.365 1.435-3.47 1.959-5.552 1.959-2.081 0-4.186-.512-5.551-1.96-1.365-1.447-1.865-3.65-1.865-5.843s.489-4.408 1.865-5.844c1.377-1.436 3.47-1.959 5.551-1.959 2.082 0 4.187.512 5.552 1.96 1.376 1.446 1.865 3.65 1.865 5.843ZM178.035 22.845v1.213h-9.089v-2.415h6.029c-.136-.88-.455-1.703-1.024-2.304-.819-.868-2.081-1.18-3.333-1.18-1.251 0-2.514.312-3.333 1.18-.819.868-1.115 2.193-1.115 3.506 0 1.313.296 2.649 1.115 3.506.819.857 2.082 1.18 3.333 1.18 1.252 0 2.514-.312 3.333-1.18.114-.122.216-.256.319-.39h3.367c-.296 1.047-.762 1.993-1.467 2.728-1.366 1.435-3.47 1.959-5.552 1.959-2.082 0-4.186-.512-5.551-1.96-1.365-1.447-1.866-3.65-1.866-5.843s.489-4.408 1.866-5.844c1.376-1.436 3.469-1.959 5.551-1.959 2.082 0 4.186.512 5.552 1.96 1.376 1.446 1.865 3.65 1.865 5.843ZM183.734 10.022h-3.412v20.625h3.412V10.022ZM189.559 22.377l5.596 8.27h-4.22l-5.597-8.27 5.597-6.645h4.22l-5.596 6.645ZM55.613 3.471c-.596-.292-.852.264-1.2.547-.12.09-.22.21-.32.319-.87.929-1.887 1.54-3.215 1.466-1.942-.109-3.6.502-5.065 1.987-.312-1.831-1.347-2.925-2.922-3.626-.824-.365-1.658-.73-2.235-1.522-.403-.565-.513-1.193-.714-1.813-.129-.374-.257-.756-.687-.82-.467-.073-.65.319-.834.647-.732 1.34-1.016 2.815-.989 4.31.064 3.361 1.484 6.04 4.305 7.944.32.219.403.437.302.756-.192.656-.421 1.294-.623 1.95-.128.42-.32.51-.769.328-1.548-.647-2.885-1.603-4.067-2.76-2.005-1.941-3.819-4.082-6.081-5.759a26.606 26.606 0 0 0-1.612-1.102c-2.308-2.241.302-4.082.907-4.3.631-.228.22-1.012-1.823-1.003-2.043.01-3.911.693-6.292 1.604a7.151 7.151 0 0 1-1.09.319 22.473 22.473 0 0 0-6.75-.237c-4.415.492-7.941 2.578-10.533 6.14C.19 13.13-.541 17.995.356 23.07c.944 5.348 3.673 9.776 7.868 13.239 4.35 3.59 9.36 5.348 15.076 5.01 3.471-.2 7.336-.664 11.696-4.354 1.099.546 2.253.765 4.167.929 1.475.136 2.895-.073 3.994-.3 1.721-.365 1.602-1.96.98-2.251-5.047-2.35-3.939-1.394-4.946-2.169 2.564-3.034 6.43-6.186 7.94-16.4.12-.81.019-1.32 0-1.977-.009-.4.083-.555.541-.601 1.264-.146 2.491-.492 3.618-1.112 3.27-1.785 4.588-4.72 4.9-8.236.046-.538-.01-1.094-.577-1.376ZM27.119 35.123c-4.89-3.845-7.263-5.111-8.243-5.057-.916.055-.751 1.103-.55 1.786.211.674.486 1.14.87 1.731.266.392.45.975-.265 1.413-1.576.974-4.314-.329-4.442-.392-3.188-1.877-5.853-4.355-7.73-7.745-1.814-3.262-2.867-6.76-3.041-10.496-.046-.902.22-1.22 1.117-1.384 1.182-.22 2.4-.265 3.581-.092 4.992.73 9.242 2.961 12.805 6.497 2.033 2.013 3.572 4.418 5.156 6.77 1.685 2.495 3.499 4.874 5.807 6.823.815.684 1.465 1.203 2.088 1.586-1.877.21-5.01.255-7.153-1.44Zm2.345-15.079a.717.717 0 0 1 .97-.674c.101.037.193.091.266.173.128.128.202.31.202.501 0 .401-.32.72-.724.72a.71.71 0 0 1-.714-.72Zm7.281 3.736c-.467.191-.934.355-1.383.373-.696.037-1.456-.246-1.868-.592-.641-.538-1.1-.838-1.292-1.777-.082-.4-.036-1.02.037-1.375.165-.766-.018-1.258-.559-1.704-.44-.365-.998-.465-1.612-.465-.229 0-.44-.1-.595-.182-.257-.128-.467-.446-.266-.838.064-.128.376-.438.45-.492.833-.474 1.794-.32 2.683.036.824.337 1.447.957 2.344 1.832.916 1.056 1.081 1.348 1.603 2.14.413.62.788 1.258 1.044 1.987.156.456-.045.829-.586 1.057Z"/></g><defs><clipPath id="a"><path fill="#fff" d="M0 0h195v41.359H0z"/></clipPath></defs></svg>